<svg height="35" viewBox="0 0 477.60001 477.60001" width="35" xmlns="http://www.w3.org/2000/svg"><path d="m477.601562 238.800781c0 131.886719-106.914062 238.800781-238.800781 238.800781s-238.800781-106.914062-238.800781-238.800781 106.914062-238.800781 238.800781-238.800781 238.800781 106.914062 238.800781 238.800781zm0 0" fill="#382b73"/><path d="m445.398438 238.800781c0 114.101563-92.496094 206.597657-206.597657 206.597657-114.101562 0-206.597656-92.496094-206.597656-206.597657 0-114.101562 92.496094-206.597656 206.597656-206.597656 114.101563 0 206.597657 92.496094 206.597657 206.597656zm0 0" fill="#473080"/><g fill="#382b73"><path d="m203.21875 218.226562c7.402344 6.667969 11.375 16.34375 11.375 26.308594v.660156c0 3.285157 2.320312 6.023438 5.414062 6.671876h-.152343v26.003906c0 4.351562 3.527343 7.878906 7.875 7.878906h4.25v.796875c0 2.828125 2.292969 5.121094 5.125 5.121094h3.394531c2.828125 0 5.121094-2.292969 5.121094-5.121094v-.796875h4.25c4.351562 0 7.878906-3.527344 7.878906-7.878906v-26.003906h-.152344c3.089844-.648438 5.414063-3.390626 5.414063-6.671876v-1.183593c0-10.003907 4.417969-19.386719 11.78125-26.15625 10.570312-9.71875 17.195312-23.652344 17.195312-39.144531 0-29.375-23.8125-53.171876-53.1875-53.171876-.183593 0-.367187-.011718-.554687-.007812-1.074219.011719-2.15625.046875-3.246094.121094-26.820312 1.867187-48.273438 24.023437-49.34375 50.882812-.660156 16.5625 6.253906 31.511719 17.5625 41.691406zm0 0"/><path d="m312.707031 250.625c-.015625-.144531-.015625-.285156-.042969-.425781-.050781-.296875-.144531-.585938-.238281-.875-.039062-.121094-.0625-.246094-.109375-.367188-.109375-.285156-.257812-.554687-.410156-.828125-.0625-.113281-.109375-.234375-.179688-.34375-.160156-.253906-.359374-.492187-.558593-.730468-.078125-.09375-.140625-.199219-.226563-.292969 0 .003906-.003906.007812-.007812.007812-.050782-.054687-.085938-.117187-.140625-.171875l-10.363281-10.367187c-2.648438-2.648438-6.960938-2.648438-9.609376 0-.054687.054687-.089843.117187-.140624.171875 0-.003906-.003907-.007813-.007813-.007813-.085937.089844-.144531.195313-.222656.289063-.203125.238281-.402344.476562-.566407.734375-.070312.109375-.117187.230469-.179687.34375-.148437.269531-.300781.542969-.410156.828125-.046875.121094-.070313.246094-.109375.371094-.089844.285156-.1875.574218-.238282.871093-.027343.140625-.023437.285157-.042968.425781-.03125.28125-.066406.5625-.066406.847657.003906.171875.035156.339843.046874.507812.023438.257813.03125.515625.085938.769531.042969.207032.117188.402344.175781.601563.066407.214844.109375.429687.195313.636719.101562.246094.246094.476562.375.714844.085937.148437.144531.308593.242187.449218.246094.371094.53125.726563.859375 1.054688l10.367188 10.367187c1.324218 1.324219 3.0625 1.984375 4.800781 1.984375 1.742187 0 3.480469-.660156 4.804687-1.988281.328126-.328125.613282-.679687.859376-1.054687.09375-.140626.15625-.296876.238281-.445313.132812-.238281.277343-.472656.378906-.71875.082031-.207031.128906-.425781.191406-.636719.0625-.203125.140625-.398437.179688-.601562.050781-.253906.0625-.511719.082031-.769532.015625-.167968.050781-.335937.050781-.503906.007813-.28125-.03125-.566406-.0625-.847656zm0 0"/><path d="m188.691406 240.257812c-.015625-.140624-.015625-.285156-.039062-.421874-.050782-.296876-.144532-.582032-.238282-.871094-.039062-.125-.0625-.253906-.109374-.371094-.109376-.289062-.257813-.558594-.410157-.828125-.0625-.113281-.109375-.234375-.179687-.34375-.164063-.257813-.363282-.492187-.5625-.730469-.078125-.097656-.136719-.203125-.222656-.296875-.003907.003907-.003907.007813-.007813.007813-.054687-.050782-.085937-.117188-.140625-.171875-2.652344-2.648438-6.960938-2.644531-9.609375 0l-10.367187 10.367187c-.050782.054688-.085938.117188-.140626.171875 0 0-.003906-.003906-.007812-.007812-.085938.09375-.144531.199219-.222656.292969-.203125.238281-.402344.472656-.5625.730468-.070313.109375-.117188.230469-.183594.34375-.148438.273438-.300781.542969-.410156.828125-.046875.121094-.070313.246094-.109375.371094-.09375.289063-.1875.574219-.238281.871094-.027344.140625-.027344.28125-.042969.425781-.03125.28125-.070313.566406-.066407.847656 0 .171875.035157.339844.046876.507813.023437.253906.03125.511719.082031.765625.039062.207031.117187.402344.179687.601562.0625.214844.109375.429688.195313.636719.101562.25.242187.480469.375.71875.082031.148437.144531.308594.238281.449219.246094.371094.53125.726562.859375 1.054687 1.324219 1.324219 3.066406 1.984375 4.804687 1.984375 1.742188 0 3.480469-.660156 4.804688-1.984375l10.367188-10.367187c.328124-.328125.613281-.683594.859374-1.054688.09375-.140625.152344-.296875.238282-.445312.132812-.238282.273437-.472656.375-.71875.085937-.207032.132812-.421875.195312-.636719.0625-.199219.136719-.394531.179688-.601563.050781-.257812.0625-.515624.082031-.773437.015625-.167969.046875-.332031.050781-.5.011719-.285156-.027344-.570313-.0625-.851563zm0 0"/><path d="m165.691406 113.753906c-.152344.269532-.300781.539063-.410156.824219-.046875.121094-.070312.246094-.109375.371094-.09375.289062-.1875.578125-.238281.871093-.027344.144532-.023438.289063-.042969.433594-.03125.28125-.070313.558594-.066406.84375 0 .171875.035156.339844.050781.511719.019531.253906.03125.511719.082031.761719.039063.207031.117188.402344.175781.605468.066407.210938.109376.425782.195313.636719.101563.25.246094.484375.378906.722657.082031.144531.144531.300781.238281.441406.246094.371094.53125.726562.859376 1.054687l10.363281 10.367188c1.324219 1.324219 3.066406 1.984375 4.804687 1.984375 1.738282 0 3.480469-.660156 4.804688-1.984375 1.285156-1.285157 1.992187-2.992188 1.992187-4.808594 0-.441406-.046875-.875-.128906-1.300781-.039063-.210938-.117187-.402344-.175781-.605469-.0625-.207031-.109375-.421875-.191406-.625-.097657-.246094-.234376-.476563-.363282-.710937-.078125-.136719-.140625-.285157-.226562-.421876-.152344-.238281-.335938-.449218-.519532-.667968-.082031-.101563-.148437-.210938-.238281-.308594-.003906.003906-.003906.007812-.011719.007812-.046874-.054687-.085937-.117187-.136718-.171874l-10.367188-10.363282c-1.285156-1.285156-2.988281-1.992187-4.804687-1.992187-1.816407 0-3.519531.710937-4.804688 1.992187-.054687.054688-.085937.117188-.140625.167969 0 0-.003906-.003906-.007812-.007813-.085938.09375-.144532.199219-.222656.292969-.203126.238281-.402344.472657-.5625.730469-.066407.109375-.113282.230469-.175782.347656zm0 0"/><path d="m137.859375 180.949219c-.128906.226562-.261719.449219-.363281.691406-.085938.210937-.136719.433594-.203125.652344-.058594.195312-.132813.382812-.171875.582031-.089844.433594-.136719.878906-.136719 1.335938 0 3.746093 3.050781 6.796874 6.796875 6.796874h14.660156c3.746094 0 6.792969-3.046874 6.792969-6.796874 0-.457032-.046875-.902344-.132813-1.335938-.042968-.203125-.117187-.394531-.175781-.59375-.066406-.214844-.117187-.4375-.203125-.644531-.097656-.242188-.234375-.464844-.359375-.695313-.078125-.140625-.144531-.292968-.234375-.425781-.148437-.234375-.328125-.441406-.507812-.652344-.078125-.09375-.144532-.207031-.230469-.296875-.003906 0-.007813.003906-.007813.007813-1.242187-1.320313-2.992187-2.160157-4.941406-2.160157h-14.660156c-1.953125 0-3.703125.839844-4.941406 2.160157-.003906-.003907-.007813-.003907-.011719-.007813-.085937.089844-.148437.203125-.230469.296875-.175781.210938-.355468.417969-.507812.652344-.085938.136719-.152344.289063-.230469.433594zm0 0"/><path d="m313.980469 179.871094c-.179688.207031-.355469.417968-.507813.648437-.089844.136719-.152344.285157-.234375.429688-.125.226562-.261719.449219-.359375.695312-.085937.207031-.136718.425781-.199218.644531-.0625.195313-.136719.386719-.179688.59375-.089844.429688-.136719.878907-.136719 1.335938 0 3.746094 3.046875 6.796875 6.796875 6.796875h14.65625c3.75 0 6.796875-3.050781 6.796875-6.796875 0-.457031-.046875-.90625-.136719-1.335938-.039062-.203124-.113281-.390624-.171874-.582031-.066407-.222656-.117188-.445312-.203126-.65625-.101562-.242187-.234374-.460937-.363281-.691406-.078125-.140625-.140625-.292969-.230469-.429687-.152343-.230469-.332031-.4375-.511718-.648438-.078125-.097656-.144532-.207031-.230469-.300781 0 .003906-.003906.003906-.007813.011719-1.238281-1.324219-2.988281-2.160157-4.941406-2.160157h-14.660156c-1.949219 0-3.699219.835938-4.941406 2.160157 0-.003907-.003906-.007813-.007813-.011719-.082031.089843-.144531.199219-.226562.296875zm0 0"/><path d="m289.6875 124.144531c-.128906.234375-.265625.464844-.367188.714844-.078124.199219-.125.410156-.1875.617187-.058593.207032-.136718.402344-.175781.609376-.082031.425781-.128906.859374-.128906 1.304687 0 1.816406.707031 3.519531 1.988281 4.804687 1.324219 1.324219 3.066406 1.988282 4.804688 1.988282 1.742187 0 3.480468-.664063 4.808594-1.988282l10.363281-10.367187c.328125-.324219.613281-.679687.859375-1.050781.09375-.144532.152344-.300782.234375-.445313.132812-.238281.277343-.472656.378906-.722656.085937-.203125.128906-.417969.191406-.628906.0625-.203125.140625-.402344.179688-.609375.050781-.253906.0625-.507813.082031-.765625.015625-.167969.050781-.339844.050781-.511719.003907-.285156-.039062-.5625-.066406-.847656-.015625-.140625-.015625-.285156-.042969-.429688-.054687-.292968-.144531-.582031-.238281-.871094-.039063-.121093-.0625-.246093-.109375-.371093-.109375-.285157-.261719-.554688-.410156-.828125-.0625-.113282-.109375-.230469-.179688-.34375-.164062-.257813-.363281-.496094-.5625-.734375-.082031-.09375-.136718-.199219-.222656-.292969-.003906.003906-.007812.007812-.007812.007812-.050782-.054687-.085938-.117187-.140626-.171874-1.285156-1.28125-2.992187-1.988282-4.804687-1.988282s-3.523437.707032-4.804687 1.988282l-10.367188 10.363281c-.050781.054687-.089844.117187-.136719.171875-.003906 0-.007812-.003906-.011719-.007813-.089843.097657-.152343.210938-.238281.3125-.183593.21875-.367187.429688-.519531.664063-.082031.144531-.140625.292968-.21875.429687zm0 0"/><path d="m238.800781 110.644531c3.746094 0 6.796875-3.046875 6.796875-6.792969v-14.660156c0-3.746094-3.050781-6.796875-6.796875-6.796875-3.75 0-6.796875 3.050781-6.796875 6.796875v14.660156c0 3.746094 3.046875 6.792969 6.796875 6.792969zm0 0"/><path d="m357.28125 359.023438c0-.6875-.074219-1.359376-.179688-2.011719-.011718-.078125-.007812-.15625-.023437-.230469 0 .011719-.007813.027344-.011719.042969-1.191406-6.742188-7.730468-11.457031-14.722656-10.074219l-51.917969 10.257812c-9.585937 1.894532-19.375 2.429688-29.074219 1.601563-4.011718-.34375-7.421874-2.613281-9.414062-5.835937-1.199219-1.9375-1.886719-4.21875-1.886719-6.632813v-6.253906c0-2.304688 1.871094-4.171875 4.171875-4.171875h25.382813c.367187 0 .738281-.023438 1.101562-.054688h.046875c1.1875-.105468 2.332032-.375 3.417969-.78125.011719-.003906.019531-.003906.027344-.007812.308593-.117188.609375-.246094.90625-.386719.070312-.03125.136719-.058594.207031-.089844.234375-.113281.460938-.238281.683594-.367187.132812-.074219.265625-.144532.394531-.21875.160156-.097656.3125-.199219.464844-.304688.191406-.125.378906-.253906.566406-.390625.089844-.066406.175781-.136719.261719-.207031.242187-.1875.472656-.378906.699218-.582031.035157-.03125.066407-.0625.097657-.09375 1.707031-1.570313 2.960937-3.585938 3.53125-5.890625.011719-.046875.023437-.089844.03125-.132813.074219-.308593.132812-.621093.179687-.941406.019532-.128906.039063-.253906.050782-.378906.015624-.117188.039062-.234375.046874-.351563.011719-.121094.003907-.238281.015626-.359375.003906-.113281.023437-.21875.027343-.332031.003907-.109375-.007812-.214844-.007812-.324219 0-.105469.011719-.210937.007812-.3125h-.015625c-.140625-6.644531-5.554687-11.992187-12.230468-11.992187h-119.652344v-9.996094c0-6.910156-5.601563-12.511719-12.511719-12.511719h-15.121094c-6.910156 0-12.511719 5.601563-12.511719 12.511719v87.070312c0 6.910157 5.601563 12.511719 12.511719 12.511719h15.121094c6.910156 0 12.511719-5.601562 12.511719-12.511719v-13.992187h6.800781c2.222656 0 4.410156.394531 6.46875 1.144531s3.984375 1.855469 5.6875 3.285156c1.582031 1.332032 3.382813 2.359376 5.296875 3.105469.5625.21875 1.136719.410157 1.71875.578125.488281.136719.972656.289063 1.476562.390625l62.082032 12.265625c13.347656 2.640625 27.078125 2.640625 40.429687 0l56.765625-11.214844c2.195313-.4375 4.164063-1.429687 5.765625-2.820312.535157-.464844 1.027344-.96875 1.476563-1.511719.890625-1.089843 1.605468-2.328125 2.09375-3.667969.488281-1.339843.75-2.785156.75-4.277343v-12.550781zm0 0"/></g><path d="m291.988281 164.710938c0-30.632813-25.894531-55.214844-56.992187-53.054688-26.816406 1.863281-48.269532 24.019531-49.339844 50.882812-.660156 16.558594 6.257812 31.507813 17.5625 41.6875 7.402344 6.664063 11.375 16.34375 11.375 26.308594v.660156c0 3.765626 3.050781 6.820313 6.820312 6.820313h34.777344c3.765625 0 6.820313-3.050781 6.820313-6.820313v-1.183593c0-10.003907 4.417969-19.386719 11.78125-26.15625 10.570312-9.71875 17.195312-23.652344 17.195312-39.144531zm0 0" fill="#e6e7e8"/><path d="m268.804688 164.710938c0-30.632813-14.609376-55.214844-32.148438-53.054688-15.128906 1.863281-27.230469 24.019531-27.835938 50.882812-.371093 16.558594 3.53125 31.507813 9.90625 41.6875 4.175782 6.664063 6.417969 16.34375 6.417969 26.308594v.660156c0 3.765626 1.722657 6.820313 3.847657 6.820313h19.617187c2.125 0 3.847656-3.050781 3.847656-6.820313v-1.183593c0-10.003907 2.492188-19.386719 6.648438-26.15625 5.960937-9.71875 9.699219-23.652344 9.699219-39.144531zm0 0" fill="#fff"/><path d="m249.867188 271.746094h-22.136719c-4.351563 0-7.878907-3.527344-7.878907-7.875v-26.003906h37.894532v26.003906c0 4.347656-3.527344 7.875-7.878906 7.875zm0 0" fill="#fddd3a"/><path d="m240.496094 277.664062h-3.394532c-2.828124 0-5.121093-2.292968-5.121093-5.121093v-.796875h13.636719v.796875c.003906 2.828125-2.292969 5.121093-5.121094 5.121093zm0 0" fill="#e7ad27"/><path d="m219.851562 245.0625h37.894532v4.816406h-37.894532zm0 0" fill="#f6ca14"/><path d="m219.851562 256.792969h37.894532v4.8125h-37.894532zm0 0" fill="#f6ca14"/><path d="m245.597656 75.191406v14.660156c0 3.746094-3.050781 6.792969-6.796875 6.792969-3.75 0-6.796875-3.046875-6.796875-6.792969v-14.660156c0-3.746094 3.046875-6.796875 6.796875-6.796875 3.746094 0 6.796875 3.050781 6.796875 6.796875zm88.222656 88.226563h-14.660156c-3.746094 0-6.792968 3.046875-6.792968 6.796875 0 3.746094 3.046874 6.796875 6.792968 6.796875h14.660156c3.746094 0 6.796876-3.050781 6.796876-6.796875 0-3.75-3.050782-6.796875-6.796876-6.796875zm-175.382812 0h-14.65625c-3.75 0-6.796875 3.046875-6.796875 6.796875 0 3.746094 3.046875 6.796875 6.796875 6.796875h14.65625c3.75 0 6.796875-3.050781 6.796875-6.796875 0-3.75-3.046875-6.796875-6.796875-6.796875zm137.1875-43.238281c1.738281 0 3.480469-.660157 4.804688-1.984376l10.363281-10.367187c2.652343-2.648437 2.652343-6.957031 0-9.609375-1.28125-1.28125-2.988281-1.988281-4.804688-1.988281-1.8125 0-3.519531.707031-4.800781 1.988281l-10.367188 10.367188c-1.285156 1.28125-1.992187 2.988281-1.992187 4.804687s.707031 3.519531 1.992187 4.804687c1.324219 1.324219 3.0625 1.984376 4.804688 1.984376zm-118.453125 102.050781-10.367187 10.367187c-2.648438 2.648438-2.648438 6.960938 0 9.609375 1.324218 1.328125 3.066406 1.988281 4.804687 1.988281 1.742187 0 3.480469-.664062 4.804687-1.988281l10.367188-10.363281c2.648438-2.652344 2.648438-6.960938 0-9.613281-2.648438-2.644531-6.960938-2.644531-9.609375 0zm123.257813 0c-2.648438-2.644531-6.960938-2.648438-9.609376 0-2.648437 2.652343-2.648437 6.960937 0 9.613281l10.367188 10.363281c1.324219 1.324219 3.0625 1.984375 4.800781 1.984375 1.742188 0 3.480469-.660156 4.804688-1.988281 2.652343-2.648437 2.652343-6.960937 0-9.609375zm-124.015626-124.011719c-1.28125-1.285156-2.988281-1.992188-4.800781-1.992188-1.816406 0-3.523437.710938-4.804687 1.992188-2.652344 2.648438-2.652344 6.960938 0 9.609375l10.363281 10.363281c1.324219 1.324219 3.066406 1.988282 4.804687 1.988282 1.738282 0 3.480469-.664063 4.804688-1.988282 1.285156-1.285156 1.992188-2.988281 1.992188-4.804687 0-1.816407-.707032-3.519531-1.992188-4.804688zm0 0" fill="#fddd3a"/><path d="m186.78125 222.558594-10.367188 10.367187c-1.324218 1.320313-3.0625 1.984375-4.804687 1.984375-1.738281 0-3.480469-.664062-4.804687-1.984375-.050782-.054687-.09375-.109375-.148438-.164062-2.492188 2.660156-2.449219 6.851562.148438 9.449219 1.324218 1.324218 3.066406 1.984374 4.804687 1.984374 1.742187 0 3.480469-.660156 4.804687-1.984374l10.367188-10.367188c2.59375-2.597656 2.640625-6.785156.148438-9.449219-.050782.054688-.097657.113281-.148438.164063zm0 0" fill="#e7ad27"/><path d="m186.78125 108.910156c-1.324219 1.324219-3.066406 1.984375-4.808594 1.984375-1.738281 0-3.480468-.660156-4.800781-1.984375l-10.367187-10.367187c-.050782-.050781-.09375-.109375-.148438-.160157-2.492188 2.660157-2.449219 6.847657.148438 9.445313l10.367187 10.363281c1.320313 1.324219 3.0625 1.988282 4.800781 1.988282 1.742188 0 3.480469-.664063 4.808594-1.988282 1.28125-1.285156 1.988281-2.988281 1.988281-4.804687 0-1.742188-.65625-3.375-1.839843-4.640625-.050782.054687-.097657.113281-.148438.164062zm0 0" fill="#e7ad27"/><path d="m163.386719 165.570312c-1.242188 1.324219-3 2.15625-4.949219 2.15625h-14.65625c-1.953125 0-3.710938-.832031-4.949219-2.15625-1.140625 1.21875-1.847656 2.847657-1.847656 4.644532 0 3.746094 3.050781 6.796875 6.796875 6.796875h14.660156c3.746094 0 6.792969-3.050781 6.792969-6.796875 0-1.796875-.707031-3.425782-1.847656-4.644532zm0 0" fill="#e7ad27"/><path d="m310.792969 232.925781c-1.324219 1.320313-3.0625 1.984375-4.804688 1.984375-1.738281 0-3.476562-.660156-4.800781-1.984375l-10.367188-10.367187c-.050781-.050782-.097656-.109375-.148437-.160156-2.492187 2.660156-2.449219 6.847656.148437 9.449218l10.367188 10.363282c1.324219 1.324218 3.0625 1.984374 4.800781 1.984374 1.742188 0 3.480469-.660156 4.804688-1.988281 2.597656-2.597656 2.644531-6.785156.148437-9.445312-.050781.050781-.09375.109375-.148437.164062zm0 0" fill="#e7ad27"/><path d="m333.820312 167.722656h-14.660156c-1.949218 0-3.707031-.832031-4.945312-2.152344-1.144532 1.214844-1.847656 2.84375-1.847656 4.640626 0 3.746093 3.046874 6.796874 6.796874 6.796874h14.65625c3.75 0 6.796876-3.046874 6.796876-6.796874 0-1.796876-.703126-3.425782-1.84375-4.640626-1.246094 1.324219-3 2.152344-4.953126 2.152344zm0 0" fill="#e7ad27"/><path d="m295.625 120.179688c1.738281 0 3.480469-.660157 4.804688-1.984376l10.363281-10.367187c2.597656-2.597656 2.644531-6.785156.148437-9.445313-.050781.054688-.09375.109376-.148437.164063l-10.363281 10.363281c-1.324219 1.324219-3.066407 1.988282-4.804688 1.988282-1.742188 0-3.480469-.664063-4.804688-1.988282-.050781-.050781-.097656-.109375-.148437-.164062-1.1875 1.265625-1.84375 2.902344-1.84375 4.644531 0 1.816406.707031 3.519531 1.992187 4.804687 1.324219 1.324219 3.0625 1.984376 4.804688 1.984376zm0 0" fill="#e7ad27"/><path d="m238.800781 87.363281c-3.75 0-6.796875-3.050781-6.796875-6.796875v9.285156c0 3.746094 3.046875 6.792969 6.796875 6.792969 3.746094 0 6.796875-3.046875 6.796875-6.792969v-9.285156c0 3.746094-3.050781 6.796875-6.796875 6.796875zm0 0" fill="#e7ad27"/><path d="m342.34375 332.75-51.917969 10.257812c-9.585937 1.894532-19.375 2.429688-29.074219 1.601563-6.417968-.550781-11.300781-6.027344-11.300781-12.46875v-6.253906c0-2.304688 1.871094-4.171875 4.171875-4.171875h25.382813c6.707031 0 12.558593-5.167969 12.757812-11.875.207031-6.9375-5.351562-12.628906-12.246093-12.628906h-119.652344v63.085937h6.800781c4.445313 0 8.75 1.570313 12.15625 4.429687 2.441406 2.054688 5.363281 3.457032 8.492187 4.074219l62.082032 12.265625c13.347656 2.640625 27.082031 2.640625 40.429687 0l56.765625-11.214844c5.863282-1.160156 10.089844-6.300781 10.089844-12.277343v-12.550781c0-7.882813-7.207031-13.804688-14.9375-12.273438zm0 0" fill="#fff"/><path d="m347.195312 352.820312-56.765624 11.21875c-13.351563 2.636719-27.082032 2.636719-40.429688 0l-62.082031-12.269531c-3.128907-.617187-6.050781-2.019531-8.492188-4.070312-3.40625-2.863281-7.710937-4.429688-12.15625-4.429688h-6.800781v17.03125h6.800781c4.445313 0 8.75 1.570313 12.15625 4.429688 2.441407 2.050781 5.363281 3.453125 8.492188 4.070312l62.082031 12.269531c13.347656 2.636719 27.082031 2.636719 40.429688 0l56.765624-11.21875c5.859376-1.15625 10.085938-6.300781 10.085938-12.277343v-12.546875c0-.769532-.070312-1.519532-.199219-2.246094-.902343 4.984375-4.773437 9.027344-9.886719 10.039062zm0 0" fill="#d1d3d4"/><path d="m147.953125 386.800781h-15.121094c-6.910156 0-12.511719-5.601562-12.511719-12.511719v-87.070312c0-6.910156 5.601563-12.511719 12.511719-12.511719h15.121094c6.910156 0 12.511719 5.601563 12.511719 12.511719v87.070312c0 6.910157-5.601563 12.511719-12.511719 12.511719zm0 0" fill="#ef5a9d"/><path d="m147.953125 358.992188h-15.121094c-6.910156 0-12.511719-5.601563-12.511719-12.511719v27.808593c0 6.910157 5.601563 12.511719 12.511719 12.511719h15.121094c6.910156 0 12.511719-5.601562 12.511719-12.511719v-27.808593c0 6.910156-5.601563 12.511719-12.511719 12.511719zm0 0" fill="#a72973"/><path d="m250.050781 332.140625v-6.253906c0-2.304688 1.871094-4.171875 4.171875-4.171875h25.328125c6.460938 0 12.242188-4.746094 12.773438-11.183594.039062-.445312.054687-.890625.042969-1.328125h-35.125c-10.277344 0-18.355469 8.789063-17.496094 19.027344.730468 8.683593 7.71875 15.523437 16.414062 16.058593l5.191406.320313c-6.417968-.550781-11.300781-6.023437-11.300781-12.46875zm0 0" fill="#d1d3d4"/></svg>