<svg id="bf043aff-d5a6-4419-8950-3fc04a49c0cd" data-name="Layer 1" xmlns="http://www.w3.org/2000/svg" width="45" height="45" viewBox="0 0 921.96994 726.74574"><title>trends</title><ellipse cx="211.00006" cy="709.22497" rx="141" ry="17" fill="#ffffff"/><ellipse cx="508.00006" cy="709.22497" rx="141" ry="17" fill="#ffffff"/><path d="M830.68485,494.61764l12.33024-74.32455L689.067,387.67756l6.31964-189.589H620.04631L614.255,371.82779,407.017,327.92221l4.3278-129.83367H336.00443L332.205,312.07244,180.78869,279.99328l-12.33024,74.3245,161.2,34.152-4.91179,147.35372L151.34533,499.08656l-12.33025,74.3245L322.2,612.22075l-6.11314,183.39491h75.34037l5.58486-167.54513,207.238,43.90563-4.12133,123.6395h75.34037l3.593-107.78978,122.17937,25.885,12.33025-74.32455-131.963-27.95781,4.91179-147.35372ZM606.79664,595.57884l-207.238-43.90559,4.91179-147.35377,207.238,43.90563Z" transform="translate(-139.01503 -86.62713)" fill="#ffffff"/><polygon points="488.565 508.952 493.477 361.598 286.239 317.692 286.093 322.065 472.693 361.598 467.927 504.579 488.565 508.952" opacity="0.2"/><polygon points="496.024 285.201 501.815 111.461 481.031 111.461 475.386 280.828 496.024 285.201" opacity="0.2"/><polygon points="568.289 377.448 568.143 381.82 691.67 407.991 692.376 403.737 568.289 377.448" opacity="0.2"/><polygon points="213.974 225.445 217.773 111.461 196.989 111.461 193.336 221.073 213.974 225.445" opacity="0.2"/><polygon points="560.831 601.199 560.685 605.571 662.226 627.084 662.932 622.83 560.831 601.199" opacity="0.2"/><polygon points="278.781 541.443 278.635 545.816 465.235 585.349 461.114 708.989 481.897 708.989 486.019 585.349 278.781 541.443" opacity="0.2"/><polygon points="185.877 444.824 206.515 449.196 211.427 301.843 50.227 267.691 61.851 197.62 41.774 193.366 29.443 267.691 190.643 301.843 185.877 444.824" opacity="0.2"/><polygon points="20.784 486.784 32.408 416.713 12.33 412.459 0 486.784 183.185 525.594 177.072 708.989 197.855 708.989 203.969 525.594 20.784 486.784" opacity="0.2"/></svg>